<?xml version="1.0" encoding="iso-8859-1"?>
<!-- Generator: Adobe Illustrator 18.0.0, SVG Export Plug-In . SVG Version: 6.00 Build 0)  -->
<!DOCTYPE svg PUBLIC "-//W3C//DTD SVG 1.1//EN" "http://www.w3.org/Graphics/SVG/1.1/DTD/svg11.dtd">
<svg version="1.1" id="Capa_1" xmlns="http://www.w3.org/2000/svg" xmlns:xlink="http://www.w3.org/1999/xlink" x="0px" y="0px"
	 viewBox="0 0 472.996 472.996" style="enable-background:new 0 0 472.996 472.996;" xml:space="preserve">
<g>
	<path d="M236.498,232.601c-21.1,0-38.265,17.166-38.265,38.265s17.166,38.265,38.265,38.265c21.099,0,38.265-17.166,38.265-38.265
		S257.597,232.601,236.498,232.601z M236.498,294.131c-12.829,0-23.265-10.437-23.265-23.265s10.437-23.265,23.265-23.265
		c12.828,0,23.265,10.437,23.265,23.265S249.326,294.131,236.498,294.131z"/>
	<path d="M277.806,218.758c-11.682-9.277-26.351-14.387-41.305-14.387c-14.96,0-29.633,5.109-41.314,14.387
		c-3.244,2.576-3.785,7.294-1.208,10.538c2.576,3.243,7.292,3.784,10.538,1.208c9.17-7.283,20.23-11.133,31.985-11.133
		c11.748,0,22.805,3.85,31.976,11.133c1.379,1.096,3.025,1.627,4.66,1.627c2.209,0,4.397-0.972,5.878-2.836
		C281.591,226.052,281.05,221.334,277.806,218.758z"/>
	<path d="M469.392,232.222c-3.54-2.152-8.153-1.028-10.305,2.511l-9.809,16.128H319.648c-1.848-20.651-11.243-39.149-25.404-52.731
		h13.258c4.142,0,7.5-3.358,7.5-7.5s-3.358-7.5-7.5-7.5h-34.784c-8.824-4.265-18.512-7.005-28.719-7.918v-36.582
		c0-4.142-3.358-7.5-7.5-7.5s-7.5,3.358-7.5,7.5v36.582c-10.206,0.913-19.895,3.653-28.719,7.918h-34.778
		c-4.142,0-7.5,3.358-7.5,7.5s3.358,7.5,7.5,7.5h13.251c-14.161,13.582-23.556,32.08-25.404,52.731H23.718l-9.809-16.128
		c-2.152-3.539-6.766-4.663-10.305-2.511c-3.539,2.153-4.664,6.767-2.511,10.305l12,19.731c1.361,2.237,3.79,3.603,6.408,3.603
		h60.873c-6.357,7.448-10.208,17.098-10.208,27.635c0,23.509,19.125,42.634,42.634,42.634s42.635-19.125,42.635-42.634
		c0-10.537-3.851-20.186-10.208-27.635h8.121c3.807,42.541,39.635,76.003,83.15,76.003c43.514,0,79.342-33.462,83.149-76.003h8.121
		c-6.357,7.448-10.208,17.098-10.208,27.635c0,23.509,19.126,42.634,42.635,42.634s42.634-19.125,42.634-42.634
		c0-10.537-3.851-20.186-10.208-27.635h60.873c2.619,0,5.047-1.366,6.408-3.603l12-19.731
		C474.055,238.989,472.931,234.375,469.392,232.222z M140.436,293.496c0,15.238-12.397,27.634-27.635,27.634
		s-27.634-12.396-27.634-27.634s12.396-27.635,27.634-27.635S140.436,278.259,140.436,293.496z M236.498,326.865
		c-37.773,0-68.503-30.73-68.503-68.503c0-37.772,30.73-68.503,68.503-68.503c37.772,0,68.503,30.73,68.503,68.503
		C305.001,296.135,274.271,326.865,236.498,326.865z M387.829,293.496c0,15.238-12.396,27.634-27.634,27.634
		s-27.635-12.396-27.635-27.634s12.397-27.635,27.635-27.635S387.829,278.259,387.829,293.496z"/>
	<path d="M112.801,315.131c11.93,0,21.635-9.705,21.635-21.635c0-11.929-9.705-21.634-21.635-21.634
		c-11.929,0-21.634,9.705-21.634,21.634C91.167,305.426,100.872,315.131,112.801,315.131z M112.801,286.862
		c3.658,0,6.635,2.976,6.635,6.634s-2.977,6.635-6.635,6.635s-6.634-2.977-6.634-6.635S109.143,286.862,112.801,286.862z"/>
	<path d="M360.195,315.131c11.929,0,21.634-9.705,21.634-21.635c0-11.929-9.705-21.634-21.634-21.634
		c-11.93,0-21.635,9.705-21.635,21.634C338.56,305.426,348.265,315.131,360.195,315.131z M360.195,286.862
		c3.658,0,6.634,2.976,6.634,6.634s-2.976,6.635-6.634,6.635s-6.635-2.977-6.635-6.635S356.537,286.862,360.195,286.862z"/>
</g>
<g>
</g>
<g>
</g>
<g>
</g>
<g>
</g>
<g>
</g>
<g>
</g>
<g>
</g>
<g>
</g>
<g>
</g>
<g>
</g>
<g>
</g>
<g>
</g>
<g>
</g>
<g>
</g>
<g>
</g>
</svg>
